<svg xmlns="http://www.w3.org/2000/svg" xmlns:xlink="http://www.w3.org/1999/xlink" viewBox="0 0 50 50"><defs><style>.cls-1,.cls-10,.cls-11,.cls-12,.cls-13,.cls-14,.cls-15,.cls-16,.cls-17,.cls-18,.cls-19,.cls-20,.cls-21,.cls-22,.cls-23,.cls-24,.cls-25,.cls-26,.cls-27,.cls-28,.cls-29,.cls-30,.cls-31,.cls-32,.cls-33,.cls-34,.cls-35,.cls-36,.cls-37,.cls-38,.cls-39,.cls-40,.cls-41,.cls-42,.cls-43,.cls-44,.cls-45,.cls-51,.cls-54,.cls-55,.cls-56,.cls-57,.cls-6,.cls-7,.cls-8,.cls-9{isolation:isolate;}.cls-2{mix-blend-mode:multiply;}.cls-3,.cls-5,.cls-55{fill:#fff;}.cls-3{opacity:0;}.cls-4{opacity:0.52;}.cls-5{fill-opacity:0;}.cls-6{fill:#fbfbfb;opacity:0.02;}.cls-7{fill:#f6f6f8;opacity:0.05;}.cls-8{fill:#f2f2f4;opacity:0.07;}.cls-9{fill:#ededf0;opacity:0.1;}.cls-10{fill:#e9e9ed;opacity:0.12;}.cls-11{fill:#e4e4e9;opacity:0.15;}.cls-12{fill:#e0e0e6;opacity:0.17;}.cls-13{fill:#dbdbe2;opacity:0.2;}.cls-14{fill:#d7d7de;opacity:0.22;}.cls-15{fill:#d2d2db;opacity:0.24;}.cls-16{fill:#ceced7;opacity:0.27;}.cls-17{fill:#c9c9d3;opacity:0.29;}.cls-18{fill:#c5c5d0;opacity:0.32;}.cls-19{fill:#c1c1cc;opacity:0.34;}.cls-20{fill:#bcbcc8;opacity:0.37;}.cls-21{fill:#b8b8c5;opacity:0.39;}.cls-22{fill:#b3b3c1;opacity:0.41;}.cls-23{fill:#afafbe;}.cls-23,.cls-51{opacity:0.44;}.cls-24{fill:#aaaaba;opacity:0.46;}.cls-25{fill:#a6a6b6;}.cls-25,.cls-56{opacity:0.49;}.cls-26{fill:#a1a1b3;opacity:0.51;}.cls-27{fill:#9d9daf;opacity:0.54;}.cls-28{fill:#9898ab;opacity:0.56;}.cls-29{fill:#9494a8;opacity:0.59;}.cls-30{fill:#8f8fa4;opacity:0.61;}.cls-31{fill:#8b8ba1;opacity:0.63;}.cls-32{fill:#86869d;opacity:0.66;}.cls-33{fill:#828299;opacity:0.68;}.cls-34{fill:#7e7e96;opacity:0.71;}.cls-35{fill:#797992;opacity:0.73;}.cls-36{fill:#75758e;opacity:0.76;}.cls-37{fill:#70708b;opacity:0.78;}.cls-38{fill:#6c6c87;opacity:0.8;}.cls-39{fill:#676783;}.cls-39,.cls-54,.cls-55,.cls-57{opacity:0.83;}.cls-40{fill:#636380;opacity:0.85;}.cls-41{fill:#5e5e7c;opacity:0.88;}.cls-42{fill:#5a5a79;opacity:0.9;}.cls-43{fill:#555575;opacity:0.93;}.cls-44{fill:#515171;opacity:0.95;}.cls-45{fill:#4c4c6e;opacity:0.98;}.cls-46{fill:#48486a;}.cls-47{fill:url(#linear-gradient);}.cls-48{fill:url(#linear-gradient-2);}.cls-49{fill:url(#linear-gradient-3);}.cls-50{fill:#f6f8fb;}.cls-51{fill:url(#radial-gradient);}.cls-52{fill:#363650;}.cls-53{fill:#2842a2;}.cls-54{fill:url(#linear-gradient-4);}.cls-56{fill:#6d6d88;}.cls-57{fill:none;stroke:#ff9800;stroke-miterlimit:10;stroke-width:0.75px;}</style><linearGradient id="linear-gradient" x1="25.82" y1="13142.14" x2="45.38" y2="13142.14" gradientTransform="translate(-9.59 -13104.68)" gradientUnits="userSpaceOnUse"><stop offset="0" stop-color="#f2f4fa"/><stop offset="0.92" stop-color="#d6dcee"/><stop offset="1" stop-color="#d3daed"/></linearGradient><linearGradient id="linear-gradient-2" x1="25.82" y1="13140.4" x2="45.37" y2="13140.4" gradientTransform="translate(-9.59 -13104.68)" gradientUnits="userSpaceOnUse"><stop offset="0" stop-color="#ffc107"/><stop offset="0.92" stop-color="#ff9800"/></linearGradient><linearGradient id="linear-gradient-3" x1="25.83" y1="13144.5" x2="45.38" y2="13144.5" xlink:href="#linear-gradient-2"/><radialGradient id="radial-gradient" cx="35.48" cy="23851.22" r="4.78" gradientTransform="translate(-9.59 -13814.56) scale(1 0.58)" gradientUnits="userSpaceOnUse"><stop offset="0.09" stop-color="#48486a"/><stop offset="0.12" stop-color="#505070"/><stop offset="0.35" stop-color="#8d8da3"/><stop offset="0.56" stop-color="#bebeca"/><stop offset="0.75" stop-color="#e2e2e7"/><stop offset="0.9" stop-color="#f7f7f9"/><stop offset="1" stop-color="#fff"/></radialGradient><linearGradient id="linear-gradient-4" x1="31.07" y1="13123.52" x2="40.15" y2="13123.52" gradientTransform="translate(-9.59 -13104.68)" gradientUnits="userSpaceOnUse"><stop offset="0.02" stop-color="#ffc107"/><stop offset="0.14" stop-color="#ffbc06"/><stop offset="1" stop-color="#ff9800"/></linearGradient></defs><title>AR</title><g class="cls-1"><g id="Layer_1" data-name="Layer 1"><g class="cls-2"><path id="_Path_" data-name="&lt;Path&gt;" class="cls-3" d="M-3.36,15.11l-6.11,3.53a0.32,0.32,0,0,0,0,.55l2.69,1.55a0.51,0.51,0,0,0,.51,0l6.11-3.53a0.32,0.32,0,0,0,0-.55l-2.69-1.55A0.51,0.51,0,0,0-3.36,15.11Z"/></g><g class="cls-4"><path id="_Path_894" data-name=" Path 894" class="cls-5" d="M26.5,33a1.13,1.13,0,0,0-1,0l-12.13,7a0.31,0.31,0,0,0,0,.59l12.13,7a1.13,1.13,0,0,0,1,0l12.13-7a0.31,0.31,0,0,0,0-.59Z"/><path class="cls-6" d="M26.5,33.05a1.13,1.13,0,0,0-1,0L13.43,40a0.31,0.31,0,0,0,0,.59l12,7a1.12,1.12,0,0,0,1,0l12-7a0.31,0.31,0,0,0,0-.59Z"/><path class="cls-7" d="M26.5,33.05a1.12,1.12,0,0,0-1,0l-12,7a0.31,0.31,0,0,0,0,.59l11.93,6.9a1.12,1.12,0,0,0,1,0l11.93-6.9a0.31,0.31,0,0,0,0-.59Z"/><path class="cls-8" d="M26.49,33.13a1.11,1.11,0,0,0-1,0L13.61,40a0.31,0.31,0,0,0,0,.58l11.87,6.85a1.11,1.11,0,0,0,1,0l11.86-6.85a0.31,0.31,0,0,0,0-.58Z"/><path class="cls-9" d="M26.49,33.18a1.1,1.1,0,0,0-1,0L13.71,40a0.31,0.31,0,0,0,0,.58l11.78,6.8a1.1,1.1,0,0,0,1,0l11.78-6.8a0.31,0.31,0,0,0,0-.58Z"/><path class="cls-10" d="M26.49,33.24a1.09,1.09,0,0,0-1,0L13.8,40a0.3,0.3,0,0,0,0,.57l11.7,6.75a1.09,1.09,0,0,0,1,0l11.69-6.75a0.3,0.3,0,0,0,0-.57Z"/><path class="cls-11" d="M26.48,33.29a1.08,1.08,0,0,0-1,0L13.89,40a0.3,0.3,0,0,0,0,.57l11.61,6.7a1.08,1.08,0,0,0,1,0l11.59-6.72a0.3,0.3,0,0,0,0-.57Z"/><path class="cls-12" d="M26.48,33.34a1.08,1.08,0,0,0-1,0L14,40a0.3,0.3,0,0,0,0,.57L25.5,47.23a1.08,1.08,0,0,0,1,0L38,40.56A0.3,0.3,0,0,0,38,40Z"/><path class="cls-13" d="M26.47,33.39a1.07,1.07,0,0,0-1,0L14,40a0.3,0.3,0,0,0,0,.56l11.43,6.6a1.07,1.07,0,0,0,1,0l11.43-6.62a0.3,0.3,0,0,0,0-.54Z"/><path class="cls-14" d="M26.47,33.45a1.06,1.06,0,0,0-1,0L14.16,40a0.29,0.29,0,0,0,0,.56l11.35,6.55a1.06,1.06,0,0,0,1,0l11.34-6.55a0.29,0.29,0,0,0,0-.56Z"/><path class="cls-15" d="M26.47,33.5a1.05,1.05,0,0,0-1,0L14.25,40a0.29,0.29,0,0,0,0,.55l11.26,6.5a1.05,1.05,0,0,0,1,0l11.25-6.5a0.29,0.29,0,0,0,0-.55Z"/><path class="cls-16" d="M26.46,33.55a1,1,0,0,0-.94,0L14.34,40a0.29,0.29,0,0,0,0,.55L25.51,47a1,1,0,0,0,.94,0l11.17-6.45a0.29,0.29,0,0,0,0-.55Z"/><path class="cls-17" d="M26.46,33.6a1,1,0,0,0-.93,0L14.43,40a0.29,0.29,0,0,0,0,.54L25.52,47a1,1,0,0,0,.93,0l11.09-6.4a0.29,0.29,0,0,0,0-.54Z"/><path class="cls-18" d="M26.46,33.66a1,1,0,0,0-.92,0L14.52,40a0.29,0.29,0,0,0,0,.54l11,6.35a1,1,0,0,0,.92,0l11-6.35a0.29,0.29,0,0,0,0-.54Z"/><path class="cls-19" d="M26.45,33.71a1,1,0,0,0-.92,0L14.61,40a0.28,0.28,0,0,0,0,.54l10.94,6.3a1,1,0,0,0,.92,0l10.94-6.3a0.28,0.28,0,0,0,0-.54Z"/><path class="cls-20" d="M26.45,33.76a1,1,0,0,0-.91,0L14.7,40a0.28,0.28,0,0,0,0,.53l10.83,6.25a1,1,0,0,0,.91,0l10.83-6.25a0.28,0.28,0,0,0,0-.53Z"/><path class="cls-21" d="M26.45,33.81a1,1,0,0,0-.9,0L14.8,40a0.28,0.28,0,0,0,0,.53l10.75,6.2a1,1,0,0,0,.9,0l10.74-6.2a0.28,0.28,0,0,0,0-.53Z"/><path class="cls-22" d="M26.44,33.86a1,1,0,0,0-.9,0L14.89,40a0.28,0.28,0,0,0,0,.52l10.66,6.15a1,1,0,0,0,.9,0L37.1,40.54a0.28,0.28,0,0,0,0-.52Z"/><path class="cls-23" d="M26.44,33.91a1,1,0,0,0-.89,0L15,40a0.27,0.27,0,0,0,0,.52l10.57,6.1a1,1,0,0,0,.89,0L37,40.53A0.27,0.27,0,0,0,37,40Z"/><path class="cls-24" d="M26.43,34a1,1,0,0,0-.88,0L15,40a0.27,0.27,0,0,0,0,.51l10.49,6.05a1,1,0,0,0,.88,0l10.5-6a0.27,0.27,0,0,0,0-.52Z"/><path class="cls-25" d="M26.43,34a1,1,0,0,0-.87,0l-10.4,6a0.27,0.27,0,0,0,0,.51l10.4,6a1,1,0,0,0,.87,0l10.39-6a0.27,0.27,0,0,0,0-.51Z"/><path class="cls-26" d="M26.43,34a1,1,0,0,0-.87,0L15.24,40a0.27,0.27,0,0,0,0,.51l10.31,6a1,1,0,0,0,.87,0l10.31-6a0.27,0.27,0,0,0,0-.51Z"/><path class="cls-27" d="M26.42,34.12a1,1,0,0,0-.87,0L15.33,40a0.26,0.26,0,0,0,0,.5l10.22,5.91a1,1,0,0,0,.87,0l10.22-5.9a0.27,0.27,0,0,0,0-.5Z"/><path class="cls-28" d="M26.42,34.17a1,1,0,0,0-.85,0L15.42,40a0.26,0.26,0,0,0,0,.5l10.14,5.87a1,1,0,0,0,.85,0l10.13-5.85a0.26,0.26,0,0,0,0-.5Z"/><path class="cls-29" d="M26.42,34.22a1,1,0,0,0-.85,0L15.51,40a0.26,0.26,0,0,0,0,.49l10.05,5.82a1,1,0,0,0,.85,0l10-5.8a0.26,0.26,0,0,0,0-.49Z"/><path class="cls-30" d="M26.41,34.28a0.93,0.93,0,0,0-.85,0L15.6,40a0.26,0.26,0,0,0,0,.49l9.94,5.76a0.93,0.93,0,0,0,.85,0l9.94-5.75a0.26,0.26,0,0,0,0-.49Z"/><path class="cls-31" d="M26.41,34.33a0.92,0.92,0,0,0-.84,0L15.69,40a0.26,0.26,0,0,0,0,.48l9.88,5.71a0.92,0.92,0,0,0,.84,0l9.87-5.7a0.26,0.26,0,0,0,0-.48Z"/><path class="cls-32" d="M26.4,34.38a0.91,0.91,0,0,0-.83,0L15.78,40a0.25,0.25,0,0,0,0,.48l9.79,5.66a0.91,0.91,0,0,0,.83,0l9.78-5.65a0.25,0.25,0,0,0,0-.48Z"/><path class="cls-33" d="M26.4,34.43a0.9,0.9,0,0,0-.82,0L15.88,40a0.25,0.25,0,0,0,0,.48l9.7,5.61a0.9,0.9,0,0,0,.82,0l9.7-5.59a0.25,0.25,0,0,0,0-.48Z"/><path class="cls-34" d="M26.4,34.49a0.9,0.9,0,0,0-.82,0L16,40a0.25,0.25,0,0,0,0,.47L25.58,46a0.9,0.9,0,0,0,.82,0L36,40.49A0.25,0.25,0,0,0,36,40Z"/><path class="cls-35" d="M26.39,34.54a0.89,0.89,0,0,0-.8,0L16,40a0.25,0.25,0,0,0,0,.47L25.58,46a0.89,0.89,0,0,0,.8,0l9.51-5.47a0.25,0.25,0,1,0,0-.5Z"/><path class="cls-36" d="M26.39,34.59a0.88,0.88,0,0,0-.8,0L16.15,40a0.24,0.24,0,0,0,0,.46L25.59,46a0.88,0.88,0,0,0,.8,0l9.43-5.45a0.24,0.24,0,0,0,0-.46Z"/><path class="cls-37" d="M26.39,34.64a0.87,0.87,0,0,0-.8,0L16.24,40a0.24,0.24,0,0,0,0,.46l9.36,5.4a0.87,0.87,0,0,0,.79,0l9.36-5.4a0.24,0.24,0,0,0,0-.46Z"/><path class="cls-38" d="M26.38,34.7a0.87,0.87,0,0,0-.79,0L16.33,40a0.24,0.24,0,0,0,0,.45l9.28,5.35a0.87,0.87,0,0,0,.79,0l9.27-5.35a0.24,0.24,0,0,0,0-.45Z"/><path class="cls-39" d="M26.38,34.75a0.87,0.87,0,0,0-.78,0L16.42,40a0.24,0.24,0,0,0,0,.45l9.19,5.3a0.87,0.87,0,0,0,.78,0l9.18-5.3a0.24,0.24,0,0,0,0-.45Z"/><path class="cls-40" d="M26.37,34.8a0.85,0.85,0,0,0-.77,0L16.51,40a0.24,0.24,0,0,0,0,.45l9.1,5.25a0.85,0.85,0,0,0,.77,0l9.1-5.25a0.24,0.24,0,0,0,0-.45Z"/><path class="cls-41" d="M26.37,34.85a0.85,0.85,0,0,0-.77,0L16.6,40a0.23,0.23,0,0,0,0,.44l9,5.2a0.85,0.85,0,0,0,.77,0l9-5.2a0.23,0.23,0,0,0,0-.44Z"/><path class="cls-42" d="M26.37,34.9a0.84,0.84,0,0,0-.76,0L16.66,40a0.23,0.23,0,0,0,0,.44l8.95,5.15a0.84,0.84,0,0,0,.76,0l8.95-5.15a0.23,0.23,0,0,0,0-.44Z"/><path class="cls-43" d="M26.36,35a0.83,0.83,0,0,0-.75,0L16.77,40a0.23,0.23,0,0,0,0,.43l8.84,5.1a0.83,0.83,0,0,0,.75,0l8.83-5.1a0.23,0.23,0,0,0,0-.43Z"/><path class="cls-44" d="M26.36,35a0.83,0.83,0,0,0-.73,0l-8.76,5a0.23,0.23,0,0,0,0,.43l8.75,5.05a0.82,0.82,0,0,0,.73,0l8.75-5.05a0.23,0.23,0,0,0,0-.43Z"/><path class="cls-45" d="M26.36,35a0.82,0.82,0,0,0-.73,0L17,40a0.22,0.22,0,0,0,0,.42l8.67,5a0.82,0.82,0,0,0,.73,0l8.66-5A0.22,0.22,0,0,0,35,40Z"/><path id="_Path_895" data-name=" Path 895" class="cls-46" d="M26.35,35.11a0.8,0.8,0,0,0-.73,0l-8.58,5a0.22,0.22,0,0,0,0,.42l8.58,5a0.8,0.8,0,0,0,.73,0l8.57-5a0.22,0.22,0,0,0,0-.42Z"/></g><path id="_Path_896" data-name=" Path 896" class="cls-47" d="M35.79,29.12H16.23v11h0a0.28,0.28,0,0,0,.16.22l9.24,5.33a0.87,0.87,0,0,0,.78,0l9.23-5.33a0.27,0.27,0,0,0,.16-0.23h0v-11h0Z"/><path id="_Path_897" data-name=" Path 897" class="cls-48" d="M35.63,32.36l-9.23,5.33a0.87,0.87,0,0,1-.78,0l-9.25-5.34a0.28,0.28,0,0,1-.16-0.22h0v1.53h0a0.28,0.28,0,0,0,.16.22l9.24,5.33a0.87,0.87,0,0,0,.78,0l9.23-5.33a0.28,0.28,0,0,0,.16-0.23V32.13A0.28,0.28,0,0,1,35.63,32.36Z"/><path id="_Path_898" data-name=" Path 898" class="cls-49" d="M35.63,36.45l-9.23,5.33a0.87,0.87,0,0,1-.78,0L16.4,36.45a0.28,0.28,0,0,1-.16-0.22h0v1.53h0a0.28,0.28,0,0,0,.16.22l9.24,5.33a0.87,0.87,0,0,0,.78,0L35.63,38a0.27,0.27,0,0,0,.16-0.23V36.23A0.28,0.28,0,0,1,35.63,36.45Z"/><path id="_Path_899" data-name=" Path 899" class="cls-50" d="M26.4,23.58a0.87,0.87,0,0,0-.78,0L16.39,28.9a0.24,0.24,0,0,0,0,.45l9.24,5.33a0.87,0.87,0,0,0,.78,0l9.23-5.33a0.24,0.24,0,0,0,0-.45Z"/><path id="_Path_900" data-name=" Path 900" class="cls-51" d="M30,31c2.29-1.31,2.29-3.47,0-4.78a9.24,9.24,0,0,0-8.3,0c-2.28,1.31-2.28,3.47,0,4.78A9.24,9.24,0,0,0,30,31Z"/><path id="_Path_901" data-name=" Path 901" class="cls-46" d="M27.29,26.22L27,26.43H24.87l-0.24-.22a3.38,3.38,0,0,1-1.09-2.48v-1h5v0.85A3.38,3.38,0,0,1,27.29,26.22Z"/><path id="_Path_902" data-name=" Path 902" class="cls-52" d="M26.34,27.08H25.52a0.73,0.73,0,0,1-.73-0.73h2.26A0.73,0.73,0,0,1,26.34,27.08Z"/><path id="_Path_903" data-name=" Path 903" class="cls-53" d="M27.77,21.77a3.89,3.89,0,0,0-3.51,0,1.07,1.07,0,0,0,0,2,3.89,3.89,0,0,0,3.51,0A1.07,1.07,0,0,0,27.77,21.77Z"/><path id="_Path_904" data-name=" Path 904" class="cls-54" d="M26,13.46a4.53,4.53,0,0,0-2.48,8.34v1h0a1.28,1.28,0,0,0,.73,1,3.9,3.9,0,0,0,3.49,0,1.23,1.23,0,0,0,.72-1h0v-1A4.53,4.53,0,0,0,26,13.46Z"/><path id="_Path_905" data-name=" Path 905" class="cls-55" d="M25.81,15.24a2.81,2.81,0,0,1,3,2.6h0c0,1.34,1.26,1.22,1.25-.49a3.3,3.3,0,0,0-3.52-3C25.31,14.37,24.78,15.25,25.81,15.24Z"/><path id="_Path_906" data-name=" Path 906" class="cls-56" d="M27.77,24.19a3.9,3.9,0,0,1-3.49,0,1.28,1.28,0,0,1-.73-1v0.34a1.28,1.28,0,0,0,.73,1,3.9,3.9,0,0,0,3.49,0,1.23,1.23,0,0,0,.71-1h0V23.22h0A1.23,1.23,0,0,1,27.77,24.19Z"/><path id="_Path_907" data-name=" Path 907" class="cls-56" d="M27.76,25.18a3.9,3.9,0,0,1-3.49,0,1.67,1.67,0,0,1-.6-0.55,3.38,3.38,0,0,0,.25.64,2,2,0,0,0,.35.25,3.9,3.9,0,0,0,3.49,0,2,2,0,0,0,.29-0.2,3.38,3.38,0,0,0,.3-0.69A1.55,1.55,0,0,1,27.76,25.18Z"/><path class="cls-57" d="M21.46,14.24a6.63,6.63,0,0,1,9.09,0"/><path class="cls-57" d="M22.43,12a7.17,7.17,0,0,1,7.16,0"/><path class="cls-57" d="M23.05,10.19a6.82,6.82,0,0,1,3-.61,6.75,6.75,0,0,1,2.9.61"/></g></g></svg>