<svg id="Layer_1" data-name="Layer 1" xmlns="http://www.w3.org/2000/svg" xmlns:xlink="http://www.w3.org/1999/xlink" viewBox="0 0 1080 1080"><defs><style>.cls-1{opacity:0.52;}.cls-2,.cls-52{fill:#fff;}.cls-2{fill-opacity:0;}.cls-3{fill:#fbfbfb;opacity:0.02;}.cls-10,.cls-11,.cls-12,.cls-13,.cls-14,.cls-15,.cls-16,.cls-17,.cls-18,.cls-19,.cls-20,.cls-21,.cls-22,.cls-23,.cls-24,.cls-25,.cls-26,.cls-27,.cls-28,.cls-29,.cls-3,.cls-30,.cls-31,.cls-32,.cls-33,.cls-34,.cls-35,.cls-36,.cls-37,.cls-38,.cls-39,.cls-4,.cls-40,.cls-41,.cls-42,.cls-48,.cls-5,.cls-51,.cls-53,.cls-6,.cls-7,.cls-8,.cls-9{isolation:isolate;}.cls-4{fill:#f6f6f8;opacity:0.05;}.cls-5{fill:#f2f2f4;opacity:0.07;}.cls-6{fill:#ededf0;opacity:0.1;}.cls-7{fill:#e9e9ed;opacity:0.12;}.cls-8{fill:#e4e4e9;opacity:0.15;}.cls-9{fill:#e0e0e6;opacity:0.17;}.cls-10{fill:#dbdbe2;opacity:0.2;}.cls-11{fill:#d7d7de;opacity:0.22;}.cls-12{fill:#d2d2db;opacity:0.24;}.cls-13{fill:#ceced7;opacity:0.27;}.cls-14{fill:#c9c9d3;opacity:0.29;}.cls-15{fill:#c5c5d0;opacity:0.32;}.cls-16{fill:#c1c1cc;opacity:0.34;}.cls-17{fill:#bcbcc8;opacity:0.37;}.cls-18{fill:#b8b8c5;opacity:0.39;}.cls-19{fill:#b3b3c1;opacity:0.41;}.cls-20{fill:#afafbe;}.cls-20,.cls-48{opacity:0.44;}.cls-21{fill:#aaaaba;opacity:0.46;}.cls-22{fill:#a6a6b6;}.cls-22,.cls-53{opacity:0.49;}.cls-23{fill:#a1a1b3;opacity:0.51;}.cls-24{fill:#9d9daf;opacity:0.54;}.cls-25{fill:#9898ab;opacity:0.56;}.cls-26{fill:#9494a8;opacity:0.59;}.cls-27{fill:#8f8fa4;opacity:0.61;}.cls-28{fill:#8b8ba1;opacity:0.63;}.cls-29{fill:#86869d;opacity:0.66;}.cls-30{fill:#828299;opacity:0.68;}.cls-31{fill:#7e7e96;opacity:0.71;}.cls-32{fill:#797992;opacity:0.73;}.cls-33{fill:#75758e;opacity:0.76;}.cls-34{fill:#70708b;opacity:0.78;}.cls-35{fill:#6c6c87;opacity:0.8;}.cls-36{fill:#676783;}.cls-36,.cls-51{opacity:0.83;}.cls-37{fill:#636380;opacity:0.85;}.cls-38{fill:#5e5e7c;opacity:0.88;}.cls-39{fill:#5a5a79;opacity:0.9;}.cls-40{fill:#555575;opacity:0.93;}.cls-41{fill:#515171;opacity:0.95;}.cls-42{fill:#4c4c6e;opacity:0.98;}.cls-43{fill:#48486a;}.cls-44{fill:url(#linear-gradient);}.cls-45{fill:url(#linear-gradient-2);}.cls-46{fill:url(#linear-gradient-3);}.cls-47{fill:#f6f8fb;}.cls-48{fill:url(#radial-gradient);}.cls-49{fill:#363650;}.cls-50{fill:#2842a2;}.cls-51{fill:url(#linear-gradient-4);}.cls-53{fill:#6d6d88;}</style><linearGradient id="linear-gradient" x1="270.22" y1="331.66" x2="829.53" y2="331.66" gradientTransform="matrix(1, 0, 0, -1, -9.59, 1068.55)" gradientUnits="userSpaceOnUse"><stop offset="0" stop-color="#f2f4fa"/><stop offset="0.92" stop-color="#d6dcee"/><stop offset="1" stop-color="#d3daed"/></linearGradient><linearGradient id="linear-gradient-2" x1="270.22" y1="381.25" x2="829.24" y2="381.25" gradientTransform="matrix(1, 0, 0, -1, -9.59, 1068.55)" gradientUnits="userSpaceOnUse"><stop offset="0" stop-color="#ffc107"/><stop offset="0.92" stop-color="#ff9800"/></linearGradient><linearGradient id="linear-gradient-3" x1="270.51" y1="264.16" x2="829.53" y2="264.16" xlink:href="#linear-gradient-2"/><radialGradient id="radial-gradient" cx="546.43" cy="-4899.79" r="136.71" gradientTransform="matrix(1, 0, 0, -0.58, -9.59, -2628.47)" gradientUnits="userSpaceOnUse"><stop offset="0.09" stop-color="#48486a"/><stop offset="0.12" stop-color="#505070"/><stop offset="0.35" stop-color="#8d8da3"/><stop offset="0.56" stop-color="#bebeca"/><stop offset="0.75" stop-color="#e2e2e7"/><stop offset="0.9" stop-color="#f7f7f9"/><stop offset="1" stop-color="#fff"/></radialGradient><linearGradient id="linear-gradient-4" x1="420.56" y1="863.93" x2="680.04" y2="863.93" gradientTransform="matrix(1, 0, 0, -1, -9.59, 1068.55)" gradientUnits="userSpaceOnUse"><stop offset="0.02" stop-color="#ffc107"/><stop offset="0.14" stop-color="#ffbc06"/><stop offset="1" stop-color="#ff9800"/></linearGradient></defs><title>lamp</title><g class="cls-1"><path id="_Path_894" data-name=" Path 894" class="cls-2" d="M554.21,608.68a32.4,32.4,0,0,0-28.42,0L179.07,807.62a8.81,8.81,0,0,0,0,16.77l346.72,198.94a32.4,32.4,0,0,0,28.42,0L900.93,824.39a8.81,8.81,0,0,0,0-16.77Z"/><path class="cls-3" d="M554.21,611a32.4,32.4,0,0,0-28.42,0l-345,198.94a8.81,8.81,0,0,0,0,16.77L524.94,1025.6a32.11,32.11,0,0,0,28.42,0L897.52,826.66a8.81,8.81,0,0,0,0-16.77Z"/><path class="cls-4" d="M554.21,611a32.11,32.11,0,0,0-28.42,0L183.33,809.9a8.81,8.81,0,0,0,0,16.77l341,197.23a32.11,32.11,0,0,0,28.42,0l341-197.23a8.81,8.81,0,0,0,0-16.77Z"/><path class="cls-5" d="M553.93,613.23a31.83,31.83,0,0,0-28.42,0L185.89,809.9a8.81,8.81,0,0,0,0,16.48l339.33,195.81a31.83,31.83,0,0,0,28.42,0l339-195.81a8.81,8.81,0,0,0,0-16.48Z"/><path class="cls-6" d="M553.93,614.65a31.55,31.55,0,0,0-28.42,0L188.73,809.9a8.81,8.81,0,0,0,0,16.48l336.78,194.39a31.55,31.55,0,0,0,28.42,0L890.7,826.38a8.81,8.81,0,0,0,0-16.48Z"/><path class="cls-7" d="M553.93,616.36a31.26,31.26,0,0,0-28.42,0L191.29,809.9a8.53,8.53,0,0,0,0,16.2l334.5,193a31.26,31.26,0,0,0,28.42,0l334.22-193a8.53,8.53,0,0,0,0-16.2Z"/><path class="cls-8" d="M553.64,617.78a31,31,0,0,0-28.42,0L193.85,809.9a8.53,8.53,0,0,0,0,16.2l331.94,191.55a31,31,0,0,0,28.42,0L885.59,825.53a8.53,8.53,0,0,0,0-16.2Z"/><path class="cls-9" d="M553.64,619.2a31,31,0,0,0-28.42,0L196.4,809.9a8.53,8.53,0,0,0,0,16.2l329.39,190.13a31,31,0,0,0,28.42,0l328.53-190.7a8.53,8.53,0,0,0,0-16.2Z"/><path class="cls-10" d="M553.36,620.62a30.69,30.69,0,0,0-28.42,0L197.82,809.9a8.53,8.53,0,0,0,0,15.92l326.83,188.71a30.69,30.69,0,0,0,28.42,0L879.9,825.24a8.53,8.53,0,0,0,0-15.35Z"/><path class="cls-11" d="M553.36,622.32a30.41,30.41,0,0,0-28.42,0L201.52,809.9a8.24,8.24,0,0,0,0,15.92L526.07,1013.1a30.41,30.41,0,0,0,28.42,0L878.77,825.81a8.24,8.24,0,0,0,0-15.92Z"/><path class="cls-12" d="M553.36,623.75a30.12,30.12,0,0,0-28.42,0L204.08,809.9a8.24,8.24,0,0,0,0,15.63l322,185.87a30.12,30.12,0,0,0,28.42,0L876.21,825.53a8.24,8.24,0,0,0,0-15.63Z"/><path class="cls-13" d="M553.07,625.17a29.84,29.84,0,0,0-27,0L206.63,809.9a8.24,8.24,0,0,0,0,15.63l319.44,183.31a29.84,29.84,0,0,0,27,0L872.51,824.39a8.24,8.24,0,0,0,0-15.63Z"/><path class="cls-14" d="M553.07,626.59a28.42,28.42,0,0,0-26.71,0L209.19,809.9a8.24,8.24,0,0,0,0,15.35l317.17,183.59a28.42,28.42,0,0,0,26.71,0L870,825.81a8.24,8.24,0,0,0,0-15.35Z"/><path class="cls-15" d="M553.07,628.29a28.42,28.42,0,0,0-26.43,0L211.75,809.9a8.24,8.24,0,0,0,0,15.35l314.61,181.6a28.42,28.42,0,0,0,26.43,0l314.32-181.6a8.24,8.24,0,0,0,0-15.35Z"/><path class="cls-16" d="M552.79,629.71a28.42,28.42,0,0,0-26.43,0L214.31,809.9a8,8,0,0,0,0,15.35l312.62,180.18a28.42,28.42,0,0,0,26.43,0L866,825.24a8,8,0,0,0,0-15.35Z"/><path class="cls-17" d="M552.79,631.13a28.42,28.42,0,0,0-26.15,0L216.87,809.9a8,8,0,0,0,0,15.06l309.49,178.76a28.42,28.42,0,0,0,26.15,0L862,825a8,8,0,0,0,0-15.06Z"/><path class="cls-18" d="M552.79,632.56a28.42,28.42,0,0,0-25.86,0L219.71,809.9a8,8,0,0,0,0,15.06L526.93,1002.3a28.42,28.42,0,0,0,25.86,0L859.72,825a8,8,0,0,0,0-15.06Z"/><path class="cls-19" d="M552.5,634.26a28.42,28.42,0,0,0-25.86,0L222.27,809.9a8,8,0,0,0,0,14.78l304.66,175.92a28.42,28.42,0,0,0,25.86,0L857.17,825a8,8,0,0,0,0-14.78Z"/><path class="cls-20" d="M552.5,635.68a28.42,28.42,0,0,0-25.58,0L224.82,809.9a7.67,7.67,0,0,0,0,14.78l302.1,174.5a28.42,28.42,0,0,0,25.58,0l302.1-174.5a7.67,7.67,0,0,0,0-14.78Z"/><path class="cls-21" d="M552.22,637.1a28.42,28.42,0,0,0-25.29,0L226.24,809.9a7.67,7.67,0,0,0,0,14.49L526.07,997.47a28.42,28.42,0,0,0,25.29,0L851.48,824.67a7.67,7.67,0,0,0,0-14.78Z"/><path class="cls-22" d="M552.22,639.38a28.42,28.42,0,0,0-25,0L229.94,809.9a7.67,7.67,0,0,0,0,14.49L527.21,994.91a28.42,28.42,0,0,0,25,0l297-170.52a7.67,7.67,0,0,0,0-14.49Z"/><path class="cls-23" d="M552.22,639.38a28.42,28.42,0,0,0-25,0L232.5,809.9a7.67,7.67,0,0,0,0,14.49L527.21,994.91a28.42,28.42,0,0,0,25,0L846.94,824.39a7.67,7.67,0,0,0,0-14.49Z"/><path class="cls-24" d="M551.94,641.65a28.42,28.42,0,0,0-24.73,0L235.05,809.9a7.39,7.39,0,0,0,0,14.21L527.21,992.92a28.42,28.42,0,0,0,24.73,0L844.09,824.39a7.67,7.67,0,0,0,0-14.21Z"/><path class="cls-25" d="M551.94,643.07a28.42,28.42,0,0,0-24.44,0L237.61,809.9a7.39,7.39,0,0,0,0,14.21L527.5,991.78a28.42,28.42,0,0,0,24.44,0l289.6-167.11a7.39,7.39,0,0,0,0-14.21Z"/><path class="cls-26" d="M551.94,644.49a28.42,28.42,0,0,0-24.16,0L240.17,809.9a7.39,7.39,0,0,0,0,13.93L527.5,990.08a28.42,28.42,0,0,0,24.16,0l287-165.69a7.39,7.39,0,0,0,0-13.93Z"/><path class="cls-27" d="M551.65,646.2a26.71,26.71,0,0,0-24.16,0L242.73,809.9a7.39,7.39,0,0,0,0,13.93l284.2,164.55a26.71,26.71,0,0,0,24.16,0l284.2-164.27a7.39,7.39,0,0,0,0-13.93Z"/><path class="cls-28" d="M551.65,647.62a26.43,26.43,0,0,0-23.87,0L245.29,809.9a7.39,7.39,0,0,0,0,13.64L527.78,986.67a26.43,26.43,0,0,0,23.87,0L833.86,823.82a7.39,7.39,0,0,0,0-13.64Z"/><path class="cls-29" d="M551.37,649a26.15,26.15,0,0,0-23.59,0L247.84,809.9a7.1,7.1,0,0,0,0,13.64L527.78,985.25a26.15,26.15,0,0,0,23.59,0L831,823.82a7.1,7.1,0,0,0,0-13.64Z"/><path class="cls-30" d="M551.37,650.46a25.86,25.86,0,0,0-23.3,0L250.69,809.9a7.1,7.1,0,0,0,0,13.64L528.06,983.83a25.86,25.86,0,0,0,23.3,0L828.75,824.11a7.1,7.1,0,0,0,0-13.64Z"/><path class="cls-31" d="M551.37,652.17a25.86,25.86,0,0,0-23.3,0L253.24,809.9a7.1,7.1,0,0,0,0,13.36L528.06,982.12a25.86,25.86,0,0,0,23.3,0L826.19,823.54a7.1,7.1,0,0,0,0-13.36Z"/><path class="cls-32" d="M551.08,653.59a25.58,25.58,0,0,0-23,0L254.66,809.9a7.1,7.1,0,0,0,0,13.36l273.4,157.16a25.58,25.58,0,0,0,23,0l272-156.31a7.1,7.1,0,0,0,0-14.21Z"/><path class="cls-33" d="M551.08,655a25.29,25.29,0,0,0-22.74,0l-270,154.89a6.82,6.82,0,0,0,0,13.07l270,157.45a25.29,25.29,0,0,0,22.74,0L820.79,824.67a6.82,6.82,0,0,0,0-13.07Z"/><path class="cls-34" d="M551.08,656.43a25,25,0,0,0-22.74,0L260.92,809.9a6.82,6.82,0,0,0,0,13.07L528.35,977.29a25,25,0,0,0,22.45,0L818.23,823a6.82,6.82,0,0,0,0-13.07Z"/><path class="cls-35" d="M550.8,658.13a24.73,24.73,0,0,0-22.45,0L263.47,809.9a6.82,6.82,0,0,0,0,12.79l265.16,152.9a24.73,24.73,0,0,0,22.45,0L816,822.68a6.82,6.82,0,0,0,0-12.79Z"/><path class="cls-36" d="M550.8,659.55a24.73,24.73,0,0,0-22.17,0L266,809.9a6.82,6.82,0,0,0,0,12.79l262.6,151.48a24.73,24.73,0,0,0,22.17,0L813.12,822.68a6.82,6.82,0,0,0,0-12.79Z"/><path class="cls-37" d="M550.52,661a24.44,24.44,0,0,0-21.88,0l-260,148.92a6.82,6.82,0,0,0,0,12.79l260,150.06a24.44,24.44,0,0,0,21.88,0l260-150.06a6.82,6.82,0,0,0,0-12.79Z"/><path class="cls-38" d="M550.52,662.4a24.16,24.16,0,0,0-21.88,0L271.15,809.9a6.54,6.54,0,0,0,0,12.5L528.63,971a24.16,24.16,0,0,0,21.88,0L808,822.4a6.54,6.54,0,0,0,0-12.5Z"/><path class="cls-39" d="M550.52,663.82a23.87,23.87,0,0,0-21.6,0L273.14,811a6.54,6.54,0,0,0,0,12.5L528.92,970.75a23.87,23.87,0,0,0,21.6,0L806.29,823.54a6.54,6.54,0,0,0,0-12.5Z"/><path class="cls-40" d="M550.23,665.52a23.59,23.59,0,0,0-21.31,0L276.26,809.9a6.54,6.54,0,0,0,0,12.22L528.92,967.91a23.59,23.59,0,0,0,21.31,0L802.6,822.12a6.54,6.54,0,0,0,0-12.22Z"/><path class="cls-41" d="M550.23,667.8a23.59,23.59,0,0,0-21,0L278.82,809.9a6.54,6.54,0,0,0,0,12.22l250.1,144.37a23.3,23.3,0,0,0,21,0L800,822.12a6.54,6.54,0,0,0,0-12.22Z"/><path class="cls-42" d="M550.23,667.8a23.3,23.3,0,0,0-21,0L281.38,809.9a6.25,6.25,0,0,0,0,11.94L529.2,963.93a23.3,23.3,0,0,0,21,0l247.54-142.1a6.25,6.25,0,0,0,0-11.94Z"/><path id="_Path_895" data-name=" Path 895" class="cls-43" d="M549.95,669.79a23,23,0,0,0-20.75,0L283.94,811.89a6.25,6.25,0,0,0,0,11.94L529.2,965.92a23,23,0,0,0,20.75,0l245-142.1a6.25,6.25,0,0,0,0-11.94Z"/></g><path id="_Path_896" data-name=" Path 896" class="cls-44" d="M819.94,498.7H260.63V813.87h0a8,8,0,0,0,4.55,6.25l264,152.33a24.73,24.73,0,0,0,22.17,0L815.1,820.13a7.67,7.67,0,0,0,4.55-6.54h0V498.7h0.28Z"/><path id="_Path_897" data-name=" Path 897" class="cls-45" d="M815.39,591.35L551.65,743.68a24.73,24.73,0,0,1-22.17,0L265.18,591.06a8,8,0,0,1-4.55-6.25h0v43.77h0a8,8,0,0,0,4.55,6.25l264,152.33a24.73,24.73,0,0,0,22.17,0L815.1,634.83a8,8,0,0,0,4.55-6.54V584.81A8,8,0,0,1,815.39,591.35Z"/><path id="_Path_898" data-name=" Path 898" class="cls-46" d="M815.39,708.15L551.65,860.48a24.73,24.73,0,0,1-22.17,0l-264-152.33a8,8,0,0,1-4.55-6.25h0v43.77h0a8,8,0,0,0,4.55,6.25l264,152.33a24.73,24.73,0,0,0,22.17,0L815.39,753.06a7.67,7.67,0,0,0,4.55-6.54V701.9A8,8,0,0,1,815.39,708.15Z"/><path id="_Path_899" data-name=" Path 899" class="cls-47" d="M551.37,340.11a24.73,24.73,0,0,0-22.17,0l-264,152.33a6.82,6.82,0,0,0,0,12.79l264,152.33a24.73,24.73,0,0,0,22.17,0L815.1,505.23a6.82,6.82,0,0,0,0-12.79Z"/><path id="_Path_900" data-name=" Path 900" class="cls-48" d="M655.38,551c65.37-37.51,65.37-99.19,0-136.7a264,264,0,0,0-237.31,0C353,451.8,353,513.48,418.08,551A264,264,0,0,0,655.38,551Z"/><path id="_Path_901" data-name=" Path 901" class="cls-43" d="M576.95,415.71l-7.1,6H507.6l-6.82-6.25a96.63,96.63,0,0,1-31.26-71V316h142.1v24.16A96.63,96.63,0,0,1,576.95,415.71Z"/><path id="_Path_902" data-name=" Path 902" class="cls-49" d="M549.66,440.44h-23.3a20.75,20.75,0,0,1-20.75-20.75h64.51A20.75,20.75,0,0,1,549.66,440.44Z"/><path id="_Path_903" data-name=" Path 903" class="cls-50" d="M590.59,288.39a111.12,111.12,0,0,0-100.32,0,30.69,30.69,0,0,0,0,56.84,111.12,111.12,0,0,0,100.32,0A30.69,30.69,0,0,0,590.59,288.39Z"/><path id="_Path_904" data-name=" Path 904" class="cls-51" d="M540.57,51.08a129.59,129.59,0,0,0-71,238.44v28.42h0a36.66,36.66,0,0,0,21,28.42,111.41,111.41,0,0,0,99.75,0,35.24,35.24,0,0,0,20.46-28.42h0V289.53A129.59,129.59,0,0,0,540.57,51.08Z"/><path id="_Path_905" data-name=" Path 905" class="cls-52" d="M536.59,99.4a85.26,85.26,0,0,1,85.26,85.26c0,43.48,36.09,40.07,36.09-15.35A100,100,0,0,0,557.34,71C522.38,71,506.75,99.4,536.59,99.4Z"/><path id="_Path_906" data-name=" Path 906" class="cls-53" d="M590.59,357.73a111.41,111.41,0,0,1-99.75,0,36.66,36.66,0,0,1-21-28.42V339a36.66,36.66,0,0,0,21,28.42,111.41,111.41,0,0,0,99.75,0A35.24,35.24,0,0,0,611,339h0v-9.09h0A35.24,35.24,0,0,1,590.59,357.73Z"/><path id="_Path_907" data-name=" Path 907" class="cls-53" d="M590.3,385.87a111.41,111.41,0,0,1-99.75,0,47.75,47.75,0,0,1-17.05-15.63,96.63,96.63,0,0,0,7.1,18.19,56.84,56.84,0,0,0,9.95,7.1,111.41,111.41,0,0,0,99.75,0,56.84,56.84,0,0,0,8.24-5.68A96.63,96.63,0,0,0,607.07,370,44.34,44.34,0,0,1,590.3,385.87Z"/></svg>