<svg xmlns="http://www.w3.org/2000/svg" xmlns:xlink="http://www.w3.org/1999/xlink" viewBox="0 0 50 50"><defs><style>.cls-1{isolation:isolate;}.cls-2{opacity:0.52;}.cls-3,.cls-54{fill:#fff;}.cls-3{opacity:0;}.cls-4{fill:#fbfbfb;opacity:0.02;}.cls-5{fill:#f6f6f8;opacity:0.05;}.cls-6{fill:#f2f2f4;opacity:0.07;}.cls-7{fill:#ededf0;opacity:0.1;}.cls-8{fill:#e9e9ed;opacity:0.12;}.cls-9{fill:#e4e4e9;opacity:0.15;}.cls-10{fill:#e0e0e6;opacity:0.17;}.cls-11{fill:#dbdbe2;opacity:0.2;}.cls-12{fill:#d7d7de;opacity:0.22;}.cls-13{fill:#d2d2db;opacity:0.24;}.cls-14{fill:#ceced7;opacity:0.27;}.cls-15{fill:#c9c9d3;opacity:0.29;}.cls-16{fill:#c5c5d0;opacity:0.32;}.cls-17{fill:#c1c1cc;opacity:0.34;}.cls-18{fill:#bcbcc8;opacity:0.37;}.cls-19{fill:#b8b8c5;opacity:0.39;}.cls-20{fill:#b3b3c1;opacity:0.41;}.cls-21{fill:#afafbe;opacity:0.44;}.cls-22{fill:#aaaaba;opacity:0.46;}.cls-23{fill:#a6a6b6;opacity:0.49;}.cls-24{fill:#a1a1b3;opacity:0.51;}.cls-25{fill:#9d9daf;opacity:0.54;}.cls-26{fill:#9898ab;opacity:0.56;}.cls-27{fill:#9494a8;opacity:0.59;}.cls-28{fill:#8f8fa4;opacity:0.61;}.cls-29{fill:#8b8ba1;opacity:0.63;}.cls-30{fill:#86869d;opacity:0.66;}.cls-31{fill:#828299;opacity:0.68;}.cls-32{fill:#7e7e96;opacity:0.71;}.cls-33{fill:#797992;opacity:0.73;}.cls-34{fill:#75758e;opacity:0.76;}.cls-35{fill:#70708b;opacity:0.78;}.cls-36{fill:#6c6c87;opacity:0.8;}.cls-37{fill:#676783;opacity:0.83;}.cls-38{fill:#636380;opacity:0.85;}.cls-39{fill:#5e5e7c;opacity:0.88;}.cls-40{fill:#5a5a79;opacity:0.9;}.cls-41{fill:#555575;opacity:0.93;}.cls-42{fill:#515171;opacity:0.95;}.cls-43{fill:#4c4c6e;opacity:0.98;}.cls-44{fill:#48486a;}.cls-45{fill:url(#linear-gradient);}.cls-46{fill:url(#linear-gradient-2);}.cls-47{fill:url(#linear-gradient-3);}.cls-48{fill:#f6f8fb;}.cls-49{opacity:0.44;mix-blend-mode:multiply;fill:url(#radial-gradient);}.cls-50{fill:url(#linear-gradient-4);}.cls-51{fill:url(#linear-gradient-5);}.cls-52{opacity:0.14;}.cls-53{fill:url(#linear-gradient-6);}.cls-55{fill:url(#linear-gradient-7);}.cls-56{fill:#e5e9f4;}.cls-57{fill:#ebedf7;}</style><linearGradient id="linear-gradient" x1="15.58" y1="36.44" x2="35.25" y2="36.44" gradientUnits="userSpaceOnUse"><stop offset="0" stop-color="#f2f4fa"/><stop offset="0.92" stop-color="#d6dcee"/><stop offset="1" stop-color="#d3daed"/></linearGradient><linearGradient id="linear-gradient-2" x1="15.58" y1="34.69" x2="35.25" y2="34.69" gradientUnits="userSpaceOnUse"><stop offset="0" stop-color="#ffc107"/><stop offset="0.92" stop-color="#ff9800"/></linearGradient><linearGradient id="linear-gradient-3" x1="15.58" y1="38.8" x2="35.25" y2="38.8" xlink:href="#linear-gradient-2"/><radialGradient id="radial-gradient" cx="25.3" cy="5921.52" r="4.81" gradientTransform="translate(0 -3416.47) scale(1 0.58)" gradientUnits="userSpaceOnUse"><stop offset="0.09" stop-color="#48486a"/><stop offset="0.12" stop-color="#505070"/><stop offset="0.35" stop-color="#8d8da3"/><stop offset="0.56" stop-color="#bebeca"/><stop offset="0.75" stop-color="#e2e2e7"/><stop offset="0.9" stop-color="#f7f7f9"/><stop offset="1" stop-color="#fff"/></radialGradient><linearGradient id="linear-gradient-4" x1="19.4" y1="14.81" x2="28.28" y2="14.81" xlink:href="#linear-gradient-2"/><linearGradient id="linear-gradient-5" x1="20.76" y1="15.89" x2="30.55" y2="15.89" xlink:href="#linear-gradient-2"/><linearGradient id="linear-gradient-6" x1="21.98" y1="16.72" x2="32.33" y2="16.72" xlink:href="#linear-gradient-2"/><linearGradient id="linear-gradient-7" x1="21.98" y1="16.72" x2="32.33" y2="16.72" xlink:href="#linear-gradient-2"/></defs><title>web</title><g class="cls-1"><g id="Layer_1" data-name="Layer 1"><g class="cls-2"><path id="_Path_" data-name="&lt;Path&gt;" class="cls-3" d="M25.91,31.92a1.14,1.14,0,0,0-1,0l-12.2,7a0.31,0.31,0,0,0,0,.59l12.2,7a1.14,1.14,0,0,0,1,0l12.2-7a0.31,0.31,0,0,0,0-.59Z"/><path class="cls-4" d="M25.91,32a1.14,1.14,0,0,0-1,0L12.77,39a0.31,0.31,0,0,0,0,.59l12.11,7a1.13,1.13,0,0,0,1,0l12.11-7A0.31,0.31,0,0,0,38,39Z"/><path class="cls-5" d="M25.9,32a1.13,1.13,0,0,0-1,0L12.86,39a0.31,0.31,0,0,0,0,.59l12,6.94a1.13,1.13,0,0,0,1,0l12-6.94a0.31,0.31,0,0,0,0-.59Z"/><path class="cls-6" d="M25.9,32.08a1.12,1.12,0,0,0-1,0L13,39a0.31,0.31,0,0,0,0,.58l11.94,6.89a1.12,1.12,0,0,0,1,0l11.93-6.89a0.31,0.31,0,0,0,0-.58Z"/><path class="cls-7" d="M25.9,32.13a1.11,1.11,0,0,0-1,0L13,39a0.31,0.31,0,0,0,0,.58L24.9,46.39a1.11,1.11,0,0,0,1,0l11.85-6.84a0.31,0.31,0,0,0,0-.58Z"/><path class="cls-8" d="M25.89,32.19a1.1,1.1,0,0,0-1,0L13.13,39a0.3,0.3,0,0,0,0,.57L24.9,46.34a1.1,1.1,0,0,0,1,0l11.76-6.79a0.3,0.3,0,0,0,0-.57Z"/><path class="cls-9" d="M25.89,32.24a1.09,1.09,0,0,0-1,0L13.22,39a0.3,0.3,0,0,0,0,.57L24.9,46.29a1.09,1.09,0,0,0,1,0l11.67-6.74a0.3,0.3,0,0,0,0-.57Z"/><path class="cls-10" d="M25.89,32.29a1.09,1.09,0,0,0-1,0L13.32,39a0.3,0.3,0,0,0,0,.57l11.59,6.69a1.09,1.09,0,0,0,1,0l11.59-6.69a0.3,0.3,0,0,0,0-.57Z"/><path class="cls-11" d="M25.88,32.34a1.08,1.08,0,0,0-1,0L13.41,39a0.3,0.3,0,0,0,0,.56l11.5,6.64a1.08,1.08,0,0,0,1,0l11.5-6.64a0.3,0.3,0,0,0,0-.56Z"/><path class="cls-12" d="M25.88,32.4a1.07,1.07,0,0,0-1,0L13.5,39a0.29,0.29,0,0,0,0,.56l11.42,6.59a1.07,1.07,0,0,0,1,0l11.41-6.59a0.29,0.29,0,0,0,0-.56Z"/><path class="cls-13" d="M25.87,32.45a1.06,1.06,0,0,0-1,0L13.59,39a0.29,0.29,0,0,0,0,.55l11.33,6.54a1.06,1.06,0,0,0,1,0L37.2,39.54a0.29,0.29,0,0,0,0-.55Z"/><path class="cls-14" d="M25.87,32.5a1.05,1.05,0,0,0-.95,0L13.68,39a0.29,0.29,0,0,0,0,.55L24.92,46a1.05,1.05,0,0,0,.95,0l11.24-6.49a0.29,0.29,0,0,0,0-.55Z"/><path class="cls-15" d="M25.87,32.55a1,1,0,0,0-.94,0L13.77,39a0.29,0.29,0,0,0,0,.54L24.93,46a1,1,0,0,0,.94,0L37,39.54A0.29,0.29,0,0,0,37,39Z"/><path class="cls-16" d="M25.86,32.61a1,1,0,0,0-.93,0L13.86,39a0.29,0.29,0,0,0,0,.54l11.07,6.39a1,1,0,0,0,.93,0l11.06-6.39a0.29,0.29,0,0,0,0-.54Z"/><path class="cls-17" d="M25.86,32.66a1,1,0,0,0-.93,0L14,39a0.28,0.28,0,0,0,0,.54l11,6.34a1,1,0,0,0,.93,0l11-6.34a0.28,0.28,0,0,0,0-.54Z"/><path class="cls-18" d="M25.86,32.71a1,1,0,0,0-.92,0L14,39a0.28,0.28,0,0,0,0,.53l10.89,6.29a1,1,0,0,0,.92,0l10.89-6.29a0.28,0.28,0,0,0,0-.53Z"/><path class="cls-19" d="M25.85,32.76a1,1,0,0,0-.91,0L14.13,39a0.28,0.28,0,0,0,0,.53l10.81,6.24a1,1,0,0,0,.91,0l10.8-6.24a0.28,0.28,0,0,0,0-.53Z"/><path class="cls-20" d="M25.85,32.82a1,1,0,0,0-.91,0L14.22,39a0.28,0.28,0,0,0,0,.52l10.72,6.19a1,1,0,0,0,.91,0l10.71-6.19a0.28,0.28,0,0,0,0-.52Z"/><path class="cls-21" d="M25.85,32.87a1,1,0,0,0-.9,0L14.31,39a0.27,0.27,0,0,0,0,.52l10.63,6.14a1,1,0,0,0,.9,0l10.63-6.14a0.27,0.27,0,0,0,0-.52Z"/><path class="cls-22" d="M25.84,32.92a1,1,0,0,0-.89,0L14.41,39a0.27,0.27,0,0,0,0,.51L25,45.61a1,1,0,0,0,.89,0l10.54-6.09a0.27,0.27,0,0,0,0-.51Z"/><path class="cls-23" d="M25.84,33A1,1,0,0,0,25,33L14.5,39a0.27,0.27,0,0,0,0,.51l10.46,6a1,1,0,0,0,.88,0l10.45-6a0.27,0.27,0,0,0,0-.51Z"/><path class="cls-24" d="M25.83,33A1,1,0,0,0,25,33L14.59,39a0.27,0.27,0,0,0,0,.51L25,45.5a1,1,0,0,0,.88,0l10.37-6a0.27,0.27,0,0,0,0-.51Z"/><path class="cls-25" d="M25.83,33.08a1,1,0,0,0-.87,0L14.68,39a0.26,0.26,0,0,0,0,.5L25,45.45a1,1,0,0,0,.87,0l10.28-5.93a0.27,0.27,0,0,0,0-.5Z"/><path class="cls-26" d="M25.83,33.13a1,1,0,0,0-.86,0L14.77,39a0.26,0.26,0,0,0,0,.5L25,45.4a1,1,0,0,0,.86,0L36,39.51a0.26,0.26,0,0,0,0-.5Z"/><path class="cls-27" d="M25.82,33.18a1,1,0,0,0-.85,0L14.86,39a0.26,0.26,0,0,0,0,.49L25,45.34a1,1,0,0,0,.85,0l10.1-5.83a0.26,0.26,0,0,0,0-.49Z"/><path class="cls-28" d="M25.82,33.24a0.94,0.94,0,0,0-.85,0L15,39a0.26,0.26,0,0,0,0,.49l10,5.79a0.94,0.94,0,0,0,.85,0l10-5.78a0.26,0.26,0,0,0,0-.49Z"/><path class="cls-29" d="M25.82,33.29a0.93,0.93,0,0,0-.84,0L15,39a0.26,0.26,0,0,0,0,.48L25,45.24a0.93,0.93,0,0,0,.84,0l9.93-5.73a0.26,0.26,0,0,0,0-.48Z"/><path class="cls-30" d="M25.81,33.34a0.92,0.92,0,0,0-.83,0L15.13,39a0.25,0.25,0,0,0,0,.48L25,45.19a0.92,0.92,0,0,0,.83,0l9.84-5.68a0.25,0.25,0,0,0,0-.48Z"/><path class="cls-31" d="M25.81,33.39a0.91,0.91,0,0,0-.82,0L15.22,39a0.25,0.25,0,0,0,0,.48L25,45.13a0.91,0.91,0,0,0,.82,0l9.76-5.63a0.25,0.25,0,0,0,0-.48Z"/><path class="cls-32" d="M25.8,33.45a0.91,0.91,0,0,0-.82,0L15.31,39a0.25,0.25,0,0,0,0,.47L25,45.08a0.91,0.91,0,0,0,.82,0l9.67-5.58a0.25,0.25,0,0,0,0-.47Z"/><path class="cls-33" d="M25.8,33.5a0.9,0.9,0,0,0-.81,0L15.4,39a0.25,0.25,0,0,0,0,.47L25,45a0.9,0.9,0,0,0,.81,0l9.58-5.53a0.25,0.25,0,0,0,0-.47Z"/><path class="cls-34" d="M25.8,33.55a0.89,0.89,0,0,0-.8,0L15.5,39a0.24,0.24,0,0,0,0,.46L25,45a0.89,0.89,0,0,0,.8,0l9.49-5.48a0.24,0.24,0,0,0,0-.46Z"/><path class="cls-35" d="M25.79,33.6a0.88,0.88,0,0,0-.8,0L15.59,39a0.24,0.24,0,0,0,0,.46L25,44.92a0.88,0.88,0,0,0,.79,0l9.41-5.43a0.24,0.24,0,0,0,0-.46Z"/><path class="cls-36" d="M25.79,33.66a0.87,0.87,0,0,0-.79,0L15.68,39a0.24,0.24,0,0,0,0,.45L25,44.87a0.87,0.87,0,0,0,.79,0l9.32-5.38a0.24,0.24,0,0,0,0-.45Z"/><path class="cls-37" d="M25.79,33.71a0.87,0.87,0,0,0-.78,0L15.77,39a0.24,0.24,0,0,0,0,.45L25,44.82a0.87,0.87,0,0,0,.78,0L35,39.49A0.24,0.24,0,0,0,35,39Z"/><path class="cls-38" d="M25.78,33.76a0.86,0.86,0,0,0-.77,0L15.86,39a0.24,0.24,0,0,0,0,.45L25,44.77a0.86,0.86,0,0,0,.77,0l9.15-5.28a0.24,0.24,0,0,0,0-.45Z"/><path class="cls-39" d="M25.78,33.81a0.85,0.85,0,0,0-.77,0L15.95,39a0.23,0.23,0,0,0,0,.44L25,44.71a0.85,0.85,0,0,0,.77,0l9.06-5.23a0.23,0.23,0,0,0,0-.44Z"/><path class="cls-40" d="M25.77,33.86a0.84,0.84,0,0,0-.76,0L16,39a0.23,0.23,0,0,0,0,.44l9,5.18a0.84,0.84,0,0,0,.76,0l9-5.18a0.23,0.23,0,0,0,0-.44Z"/><path class="cls-41" d="M25.77,33.92a0.83,0.83,0,0,0-.75,0L16.13,39a0.23,0.23,0,0,0,0,.43L25,44.61a0.83,0.83,0,0,0,.75,0l8.88-5.13a0.23,0.23,0,0,0,0-.43Z"/><path class="cls-42" d="M25.77,34A0.83,0.83,0,0,0,25,34L16.22,39a0.23,0.23,0,0,0,0,.43L25,44.56a0.82,0.82,0,0,0,.74,0l8.8-5.08a0.23,0.23,0,0,0,0-.43Z"/><path class="cls-43" d="M25.76,34A0.82,0.82,0,0,0,25,34l-8.72,5a0.22,0.22,0,0,0,0,.42l8.72,5a0.82,0.82,0,0,0,.74,0l8.71-5a0.22,0.22,0,0,0,0-.42Z"/><path id="_Path_2" data-name="&lt;Path&gt;" class="cls-44" d="M25.76,34.07a0.81,0.81,0,0,0-.73,0l-8.63,5a0.22,0.22,0,0,0,0,.42l8.63,5a0.81,0.81,0,0,0,.73,0l8.62-5a0.22,0.22,0,0,0,0-.42Z"/></g><path id="_Path_3" data-name="&lt;Path&gt;" class="cls-45" d="M35.25,28.05H15.58V39.14h0a0.28,0.28,0,0,0,.16.22L25,44.73a0.87,0.87,0,0,0,.78,0l9.28-5.36a0.27,0.27,0,0,0,.16-0.23h0V28.05Z"/><path id="_Path_4" data-name="&lt;Path&gt;" class="cls-46" d="M35.09,31.31l-9.28,5.36a0.87,0.87,0,0,1-.78,0L15.74,31.3a0.28,0.28,0,0,1-.16-0.22h0v1.54h0a0.28,0.28,0,0,0,.16.22L25,38.2a0.87,0.87,0,0,0,.78,0l9.28-5.36a0.28,0.28,0,0,0,.16-0.23V31.08A0.28,0.28,0,0,1,35.09,31.31Z"/><path id="_Path_5" data-name="&lt;Path&gt;" class="cls-47" d="M35.09,35.42l-9.28,5.36a0.87,0.87,0,0,1-.78,0l-9.29-5.36a0.28,0.28,0,0,1-.16-0.22h0v1.54h0a0.28,0.28,0,0,0,.16.22L25,42.32a0.87,0.87,0,0,0,.78,0L35.09,37a0.27,0.27,0,0,0,.16-0.23V35.2A0.28,0.28,0,0,1,35.09,35.42Z"/><path id="_Path_6" data-name="&lt;Path&gt;" class="cls-48" d="M25.81,22.47a0.87,0.87,0,0,0-.78,0l-9.29,5.36a0.24,0.24,0,0,0,0,.45L25,33.64a0.87,0.87,0,0,0,.78,0l9.28-5.36a0.24,0.24,0,0,0,0-.45Z"/><path id="_Path_7" data-name="&lt;Path&gt;" class="cls-49" d="M29.47,29.89c2.3-1.32,2.3-3.49,0-4.81a9.29,9.29,0,0,0-8.35,0c-2.29,1.32-2.29,3.49,0,4.81A9.29,9.29,0,0,0,29.47,29.89Z"/><g id="_Group_" data-name="&lt;Group&gt;"><path class="cls-50" d="M19.67,20.84a0.25,0.25,0,0,1-.13,0,0.32,0.32,0,0,1-.14-0.29V14.15a0.88,0.88,0,0,1,.4-0.69l8-4.63a0.29,0.29,0,0,1,.47.27v6.37a0.88,0.88,0,0,1-.4.69l-8,4.63A0.39,0.39,0,0,1,19.67,20.84ZM28,8.91a0.27,0.27,0,0,0-.13,0l-8,4.63a0.74,0.74,0,0,0-.33.57v6.37a0.16,0.16,0,0,0,.26.15l8-4.63a0.74,0.74,0,0,0,.33-0.57V9.1a0.2,0.2,0,0,0-.07-0.18Z"/></g><g id="_Group_2" data-name="&lt;Group&gt;"><path class="cls-51" d="M21.05,22.54a0.27,0.27,0,0,1-.14,0,0.35,0.35,0,0,1-.15-0.32v-7a1,1,0,0,1,.44-0.76L30,9.29a0.31,0.31,0,0,1,.5.29v7a1,1,0,0,1-.44.76l-8.85,5.11A0.43,0.43,0,0,1,21.05,22.54ZM30.26,9.36a0.3,0.3,0,0,0-.15,0l-8.85,5.11a0.83,0.83,0,0,0-.37.64v7a0.18,0.18,0,0,0,.3.17L30,17.25a0.83,0.83,0,0,0,.37-0.64v-7a0.22,0.22,0,0,0-.08-0.2Z"/></g><g class="cls-52"><path id="_Path_8" data-name="&lt;Path&gt;" class="cls-3" d="M32.33,19a0.26,0.26,0,0,0-.43-0.25L22.42,24.2a1,1,0,0,0-.43.75v3.3a0.26,0.26,0,0,0,.43.25L31.9,23a1,1,0,0,0,.43-0.75V19Z"/><path class="cls-4" d="M32.33,19a0.26,0.26,0,0,0-.43-0.25L22.42,24.2A1,1,0,0,0,22,25v3.21a0.26,0.26,0,0,0,.43.25l9.49-5.48a1,1,0,0,0,.43-0.75V19Z"/><path class="cls-5" d="M32.33,19a0.26,0.26,0,0,0-.43-0.25L22.42,24.2A1,1,0,0,0,22,25v3.13a0.26,0.26,0,0,0,.43.25l9.49-5.48a1,1,0,0,0,.43-0.75V19Z"/><path class="cls-6" d="M32.33,19a0.26,0.26,0,0,0-.43-0.25l-9.49,5.48A1,1,0,0,0,22,25v3a0.26,0.26,0,0,0,.43.25l9.49-5.48A1,1,0,0,0,32.33,22V19Z"/><path class="cls-7" d="M32.33,19a0.26,0.26,0,0,0-.43-0.25l-9.49,5.48A1,1,0,0,0,22,25v3a0.26,0.26,0,0,0,.43.25l9.49-5.48a1,1,0,0,0,.43-0.75V19Z"/><path class="cls-8" d="M32.33,19a0.26,0.26,0,0,0-.43-0.25l-9.49,5.48A1,1,0,0,0,22,25v2.87a0.26,0.26,0,0,0,.43.25L31.9,22.6a1,1,0,0,0,.43-0.75V19Z"/><path class="cls-9" d="M32.33,19a0.26,0.26,0,0,0-.43-0.25l-9.49,5.48A1,1,0,0,0,22,25v2.79a0.26,0.26,0,0,0,.43.25l9.49-5.48a1,1,0,0,0,.43-0.75V19Z"/><path class="cls-10" d="M32.33,19a0.26,0.26,0,0,0-.43-0.25l-9.49,5.48A1,1,0,0,0,22,25v2.71a0.26,0.26,0,0,0,.43.25l9.49-5.48a1,1,0,0,0,.43-0.75V19Z"/><path class="cls-11" d="M32.33,19a0.26,0.26,0,0,0-.43-0.25l-9.49,5.48A1,1,0,0,0,22,25v2.62a0.26,0.26,0,0,0,.43.25l9.49-5.48a1,1,0,0,0,.43-0.75V19Z"/><path class="cls-12" d="M32.33,19a0.26,0.26,0,0,0-.43-0.25l-9.49,5.48A1,1,0,0,0,22,25V27.5a0.26,0.26,0,0,0,.43.25l9.49-5.48a1,1,0,0,0,.43-0.75V19Z"/><path class="cls-13" d="M32.33,19a0.26,0.26,0,0,0-.43-0.25l-9.49,5.48A1,1,0,0,0,22,25v2.45a0.26,0.26,0,0,0,.43.25l9.49-5.48a1,1,0,0,0,.43-0.75V19Z"/><path class="cls-14" d="M32.33,19a0.26,0.26,0,0,0-.43-0.25l-9.49,5.48A1,1,0,0,0,22,25v2.37a0.26,0.26,0,0,0,.43.25l9.49-5.48a1,1,0,0,0,.43-0.75V19Z"/><path class="cls-15" d="M32.33,19a0.26,0.26,0,0,0-.43-0.25l-9.49,5.48A1,1,0,0,0,22,25v2.29a0.26,0.26,0,0,0,.43.25L31.9,22a1,1,0,0,0,.43-0.75V19Z"/><path class="cls-16" d="M32.33,19a0.26,0.26,0,0,0-.43-0.25l-9.49,5.48A1,1,0,0,0,22,25v2.2a0.26,0.26,0,0,0,.43.25l9.49-5.48a1,1,0,0,0,.43-0.75V19Z"/><path class="cls-17" d="M32.33,19a0.26,0.26,0,0,0-.43-0.25l-9.49,5.48A1,1,0,0,0,22,25v2.12a0.26,0.26,0,0,0,.43.25l9.49-5.48a1,1,0,0,0,.43-0.75V19Z"/><path class="cls-18" d="M32.33,19a0.26,0.26,0,0,0-.43-0.25l-9.49,5.48A1,1,0,0,0,22,25v2a0.26,0.26,0,0,0,.43.25l9.49-5.48A1,1,0,0,0,32.33,21V19Z"/><path class="cls-19" d="M32.33,19a0.26,0.26,0,0,0-.43-0.25l-9.49,5.48A1,1,0,0,0,22,25v1.95a0.26,0.26,0,0,0,.43.25L31.9,21.7a1,1,0,0,0,.43-0.75V19Z"/><path class="cls-20" d="M32.33,19a0.26,0.26,0,0,0-.43-0.25l-9.49,5.48A1,1,0,0,0,22,25v1.86a0.26,0.26,0,0,0,.43.25l9.49-5.48a1,1,0,0,0,.43-0.75V19Z"/><path class="cls-21" d="M32.33,19a0.26,0.26,0,0,0-.43-0.25l-9.49,5.48A1,1,0,0,0,22,25v1.78a0.26,0.26,0,0,0,.43.25l9.49-5.48a1,1,0,0,0,.43-0.75V19Z"/><path class="cls-22" d="M32.33,19a0.26,0.26,0,0,0-.43-0.25l-9.49,5.48A1,1,0,0,0,22,25v1.7a0.26,0.26,0,0,0,.43.25l9.49-5.48a1,1,0,0,0,.43-0.75V19Z"/><path class="cls-23" d="M32.33,19a0.26,0.26,0,0,0-.43-0.25l-9.49,5.48A1,1,0,0,0,22,25V26.6a0.26,0.26,0,0,0,.43.25l9.49-5.48a1,1,0,0,0,.43-0.75V19Z"/><path class="cls-24" d="M32.33,19a0.26,0.26,0,0,0-.43-0.25l-9.49,5.48A1,1,0,0,0,22,25v1.53a0.26,0.26,0,0,0,.43.25l9.49-5.48a1,1,0,0,0,.43-0.75V19Z"/><path class="cls-25" d="M32.33,19a0.26,0.26,0,0,0-.43-0.25l-9.49,5.48A1,1,0,0,0,22,25v1.44a0.26,0.26,0,0,0,.43.25L31.9,21.2a1,1,0,0,0,.43-0.75V19Z"/><path class="cls-26" d="M32.33,19a0.26,0.26,0,0,0-.43-0.25l-9.49,5.48A1,1,0,0,0,22,25v1.36a0.26,0.26,0,0,0,.43.25l9.49-5.48a1,1,0,0,0,.43-0.75V19Z"/><path class="cls-27" d="M32.33,19a0.26,0.26,0,0,0-.43-0.25l-9.49,5.48A1,1,0,0,0,22,25v1.27a0.26,0.26,0,0,0,.43.25L31.9,21a1,1,0,0,0,.43-0.75V19Z"/><path class="cls-28" d="M32.33,19a0.26,0.26,0,0,0-.43-0.25l-9.49,5.48A1,1,0,0,0,22,25v1.19a0.26,0.26,0,0,0,.43.25L31.9,21a1,1,0,0,0,.43-0.75V19Z"/><path class="cls-29" d="M32.33,19a0.26,0.26,0,0,0-.43-0.25l-9.49,5.48A1,1,0,0,0,22,25V26.1a0.26,0.26,0,0,0,.43.25l9.49-5.48a1,1,0,0,0,.43-0.75V19Z"/><path class="cls-30" d="M32.33,19a0.26,0.26,0,0,0-.43-0.25l-9.49,5.48A1,1,0,0,0,22,25v1a0.26,0.26,0,0,0,.43.25l9.49-5.48A1,1,0,0,0,32.33,20V19Z"/><path class="cls-31" d="M32.33,19a0.26,0.26,0,0,0-.43-0.25l-9.49,5.48A1,1,0,0,0,22,25v0.94a0.26,0.26,0,0,0,.43.25l9.49-5.48A1,1,0,0,0,32.33,20V19Z"/><path class="cls-32" d="M32.33,19a0.26,0.26,0,0,0-.43-0.25l-9.49,5.48A1,1,0,0,0,22,25v0.85a0.26,0.26,0,0,0,.43.25l9.49-5.48a1,1,0,0,0,.43-0.75V19Z"/><path class="cls-33" d="M32.33,19a0.26,0.26,0,0,0-.43-0.25l-9.49,5.48A1,1,0,0,0,22,25v0.77a0.26,0.26,0,0,0,.43.25l9.49-5.48a1,1,0,0,0,.43-0.75V19Z"/><path class="cls-34" d="M32.33,19a0.26,0.26,0,0,0-.43-0.25l-9.49,5.48A1,1,0,0,0,22,25v0.69a0.26,0.26,0,0,0,.43.25l9.49-5.48a1,1,0,0,0,.43-0.75V19Z"/><path class="cls-35" d="M32.33,19a0.26,0.26,0,0,0-.43-0.25l-9.49,5.48A1,1,0,0,0,22,25v0.6a0.26,0.26,0,0,0,.43.25l9.49-5.48a1,1,0,0,0,.43-0.75V19Z"/><path class="cls-36" d="M32.33,19a0.26,0.26,0,0,0-.43-0.25l-9.49,5.48A1,1,0,0,0,22,25v0.52a0.26,0.26,0,0,0,.43.25L31.9,20.3a1,1,0,0,0,.43-0.75V19Z"/><path class="cls-37" d="M32.33,19a0.26,0.26,0,0,0-.43-0.25l-9.49,5.48A1,1,0,0,0,22,25v0.43a0.26,0.26,0,0,0,.43.25l9.49-5.48a1,1,0,0,0,.43-0.75V19Z"/><path class="cls-38" d="M32.33,19a0.26,0.26,0,0,0-.43-0.25l-9.49,5.48A1,1,0,0,0,22,25v0.35a0.26,0.26,0,0,0,.43.25l9.49-5.48a1,1,0,0,0,.43-0.75V19Z"/><path class="cls-39" d="M32.33,19a0.26,0.26,0,0,0-.43-0.25l-9.49,5.48A1,1,0,0,0,22,25v0.26a0.26,0.26,0,0,0,.43.25L31.9,20a1,1,0,0,0,.43-0.75V19Z"/><path class="cls-40" d="M32.33,19a0.26,0.26,0,0,0-.43-0.25l-9.49,5.48A1,1,0,0,0,22,25v0.18a0.26,0.26,0,0,0,.43.25L31.9,20a1,1,0,0,0,.43-0.75V19Z"/><path class="cls-41" d="M32.33,19a0.26,0.26,0,0,0-.43-0.25l-9.49,5.48A1,1,0,0,0,22,25v0.1a0.26,0.26,0,0,0,.43.25l9.49-5.48a1,1,0,0,0,.43-0.75V19Z"/><path class="cls-42" d="M32.33,19a0.26,0.26,0,0,0-.43-0.25l-9.49,5.48A1,1,0,0,0,22,25h0a0.26,0.26,0,0,0,.43.25L31.9,19.8a1,1,0,0,0,.43-0.75h0Z"/><path class="cls-43" d="M32.33,19a0.26,0.26,0,0,0-.43-0.25l-9.49,5.48A1,1,0,0,0,22,25V24.95a0.26,0.26,0,0,0,.43.25l9.49-5.48A1,1,0,0,0,32.33,19V19Z"/><path id="_Path_9" data-name="&lt;Path&gt;" class="cls-44" d="M32.33,19a0.26,0.26,0,0,0-.43-0.25l-9.49,5.48A1,1,0,0,0,22,25V24.86a0.26,0.26,0,0,0,.43.25l9.49-5.48a1,1,0,0,0,.43-0.75V19Z"/></g><path id="_Path_10" data-name="&lt;Path&gt;" class="cls-53" d="M32.33,10a0.26,0.26,0,0,0-.43-0.25l-9.49,5.48a1,1,0,0,0-.43.75v7.54a0.26,0.26,0,0,0,.43.25l9.49-5.48a1,1,0,0,0,.43-0.75V10Z"/><path id="_Path_11" data-name="&lt;Path&gt;" class="cls-54" d="M31.73,11.22A0.23,0.23,0,0,0,31.36,11l-8.06,4.69a0.82,0.82,0,0,0-.37.64v6a0.23,0.23,0,0,0,.37.21l8.06-4.69a0.82,0.82,0,0,0,.37-0.64v-6Z"/><path id="_Path_12" data-name="&lt;Path&gt;" class="cls-55" d="M22.33,23.67V16.13a1,1,0,0,1,.43-0.75l9.49-5.48,0.08,0a0.25,0.25,0,0,0-.42-0.16l-9.49,5.48a1,1,0,0,0-.43.75v7.54a0.25,0.25,0,0,0,.36.28A0.49,0.49,0,0,1,22.33,23.67Z"/><polygon id="_Path_13" data-name="&lt;Path&gt;" class="cls-56" points="23.31 16.28 29.48 12.63 29.48 15.97 23.31 19.62 23.31 16.28"/><polygon id="_Path_14" data-name="&lt;Path&gt;" class="cls-57" points="23.31 19.87 31.49 15.13 31.49 15.55 23.31 20.29 23.31 19.87"/><polygon id="_Path_15" data-name="&lt;Path&gt;" class="cls-57" points="23.31 20.71 31.49 15.97 31.49 16.39 23.31 21.13 23.31 20.71"/><polygon id="_Path_16" data-name="&lt;Path&gt;" class="cls-57" points="23.31 21.55 28 18.83 28 19.25 23.31 21.97 23.31 21.55"/></g></g></svg>